<?xml version="1.0" standalone="no"?>
<!DOCTYPE svg PUBLIC "-//W3C//DTD SVG 20010904//EN"
 "http://www.w3.org/TR/2001/REC-SVG-20010904/DTD/svg10.dtd">
<svg version="1.0" xmlns="http://www.w3.org/2000/svg"
 width="460.000000pt" height="460.000000pt" viewBox="0 0 460.000000 460.000000"
 preserveAspectRatio="xMidYMid meet">
<metadata>
Created by potrace 1.14, written by Peter Selinger 2001-2017
</metadata>
<g transform="translate(0.000000,460.000000) scale(0.100000,-0.100000)"
fill="#000000" stroke="none">
<path d="M0 3030 c0 -1563 0 -1570 20 -1570 11 0 20 -4 20 -10 0 -5 -9 -10
-20 -10 -20 0 -20 -7 -20 -720 l0 -720 1435 0 c1364 0 1435 1 1426 17 -6 10
-35 45 -65 78 -31 33 -56 64 -56 69 0 5 6 17 14 25 8 9 39 56 70 106 51 81 71
128 90 218 l7 28 32 -23 c18 -12 38 -28 45 -35 8 -7 22 -18 33 -23 10 -6 19
-19 19 -28 0 -22 53 -64 72 -57 7 3 49 -27 93 -66 44 -39 87 -75 95 -79 9 -5
21 -36 28 -70 l13 -62 52 6 c49 6 54 5 90 -28 20 -19 37 -44 37 -55 0 -21 2
-21 535 -21 l535 0 0 164 c0 99 -4 167 -10 171 -5 3 -10 1 -10 -4 0 -6 -3 -11
-7 -11 -5 0 -8 23 -9 51 0 33 2 45 8 35 5 -9 13 -16 18 -16 15 0 13 1569 -1
1587 -9 10 -9 17 -1 25 8 8 12 60 12 156 l0 144 -42 -7 c-34 -6 -41 -4 -31 5
6 7 26 13 42 14 l31 1 0 1143 0 1142 -2300 0 -2300 0 0 -1570z m2656 1400 c20
-80 41 -153 46 -163 13 -25 1 -35 -17 -16 -8 8 -22 51 -31 94 -9 44 -20 96
-24 115 -42 184 -23 162 26 -30z m-1371 1 c28 -5 7 -7 -70 -7 -116 0 -164 -13
-236 -65 -79 -56 -154 -204 -190 -374 -15 -76 -17 -100 -8 -117 10 -19 19
-256 23 -595 l1 -62 50 -17 c151 -49 267 -176 369 -402 69 -154 87 -228 85
-348 -3 -100 -2 -102 25 -125 52 -46 43 -133 -18 -161 -19 -8 -29 -6 -53 11
-36 27 -97 38 -118 21 -23 -19 -18 -28 17 -32 17 -2 33 -7 34 -13 4 -12 -74
-71 -89 -67 -6 2 -23 -2 -39 -9 -22 -9 -26 -14 -16 -20 9 -6 6 -9 -10 -9 -13
0 -21 4 -18 9 3 4 -31 0 -77 -11 -96 -23 -175 -20 -258 10 -62 22 -163 87
-193 124 -10 12 -28 34 -40 48 -11 14 8 -2 44 -35 36 -34 81 -71 101 -83 59
-36 148 -62 210 -62 61 0 87 15 45 26 -14 3 -23 11 -20 18 2 6 -5 12 -16 13
-83 7 -210 51 -210 73 0 6 -7 10 -16 10 -14 0 -14 3 -4 15 11 13 9 15 -10 13
-15 -2 -24 3 -25 14 -2 9 2 15 8 12 14 -5 17 109 5 122 -5 4 -8 0 -8 -9 0 -17
-11 -22 -23 -10 -4 3 1 15 10 25 16 18 16 18 -1 12 -15 -6 -17 -3 -11 14 4 13
2 22 -4 22 -6 0 -11 13 -11 30 0 20 -4 28 -13 24 -9 -3 -13 3 -13 18 1 16 -4
23 -17 22 -9 -1 -17 3 -16 10 1 6 -2 26 -6 44 -5 23 -12 31 -22 27 -12 -4 -14
0 -9 20 4 14 2 25 -4 25 -5 0 -10 -4 -10 -10 0 -5 -5 -10 -11 -10 -5 0 -7 5
-4 10 3 6 -1 10 -11 10 -11 0 -14 4 -8 13 5 7 2 5 -7 -5 -22 -23 -32 -11 -13
16 8 13 11 26 7 29 -3 4 0 7 8 7 8 0 4 6 -9 16 -12 8 -26 13 -31 9 -5 -3 -13
0 -17 6 -3 6 0 15 7 20 12 7 12 9 0 9 -20 0 -7 78 24 144 25 53 33 116 16 116
-13 0 -53 -54 -82 -110 -17 -35 -24 -69 -29 -150 -4 -59 -8 -85 -10 -60 -1 25
-4 56 -5 70 -2 14 5 57 15 95 17 66 25 83 74 160 30 47 141 116 236 146 38 12
47 18 29 18 -35 1 -133 -33 -172 -61 -18 -12 -55 -41 -83 -65 -28 -24 -56 -43
-62 -43 -6 0 -16 -9 -22 -21 -7 -11 -14 -19 -16 -16 -8 7 48 102 83 141 59 65
236 162 285 155 32 -4 38 2 37 39 -1 56 -20 107 -57 146 -38 42 -58 45 -74 11
-6 -13 -15 -22 -19 -19 -5 3 -9 -1 -9 -9 0 -10 -15 -16 -47 -20 -73 -8 -83 2
-83 79 l0 65 34 -35 c20 -22 43 -36 57 -36 22 0 233 69 258 84 6 4 11 27 11
50 0 35 4 45 20 49 13 3 20 14 20 31 0 90 25 292 45 362 48 163 125 282 216
330 68 36 187 52 274 35z m175 -52 c30 -15 51 -28 47 -29 -4 0 -26 10 -49 21
-23 12 -60 27 -82 35 -39 13 -39 13 -6 7 19 -3 60 -18 90 -34z m146 -97 c-5
-4 -86 58 -86 65 0 2 20 -10 45 -28 25 -18 43 -34 41 -37z m-336 -102 c0 -6
-27 -10 -62 -10 -45 0 -59 3 -48 10 20 13 110 13 110 0z m-554 -226 c-4 -9 -9
-15 -11 -12 -3 3 -3 13 1 22 4 9 9 15 11 12 3 -3 3 -13 -1 -22z m1274 -73 c30
-6 64 -10 75 -9 11 1 50 -9 87 -21 60 -20 76 -31 138 -99 88 -95 132 -172 166
-293 15 -52 38 -118 51 -148 37 -83 53 -162 38 -186 -7 -11 -16 -31 -19 -45
-7 -24 -6 -24 8 -6 9 11 16 14 16 8 0 -26 -28 -78 -54 -99 -22 -20 -24 -26
-15 -50 11 -30 38 -66 94 -128 20 -22 52 -63 71 -92 19 -29 61 -76 93 -104 66
-58 81 -83 81 -135 0 -60 -86 -125 -104 -79 -7 19 -33 19 -99 1 -29 -8 -73
-17 -99 -20 -45 -5 -49 -4 -75 29 -34 42 -50 44 -64 8 -15 -40 -4 -69 32 -83
26 -11 37 -11 63 0 56 23 145 43 163 36 26 -10 -5 -27 -36 -19 -31 8 -19 -14
15 -27 19 -8 24 -17 24 -46 0 -27 -5 -37 -19 -41 -13 -3 -18 -10 -14 -21 4
-10 2 -13 -5 -8 -7 4 -12 1 -12 -7 0 -8 9 -17 20 -20 25 -7 25 -18 -1 -51 -17
-21 -24 -24 -40 -16 -22 12 -26 40 -5 40 25 0 30 22 10 39 -11 9 -18 24 -16
34 5 27 -23 31 -79 11 -33 -12 -54 -27 -60 -41 -8 -21 -39 -26 -65 -10 -6 3
-21 -1 -35 -8 -13 -8 -38 -22 -55 -31 -39 -21 -77 -83 -100 -166 -10 -38 -22
-69 -26 -69 -5 -1 -12 -3 -18 -4 -5 -1 -13 -3 -17 -4 -5 -1 -1 -6 7 -11 9 -6
10 -10 3 -10 -6 0 -18 9 -26 20 -12 18 -15 18 -20 5 -7 -16 -47 -21 -47 -5 0
6 -9 10 -20 10 -13 0 -20 7 -20 20 0 11 -7 20 -15 20 -10 0 -15 -10 -15 -32
-1 -31 -1 -32 -15 -14 -8 11 -15 34 -15 50 0 20 -3 26 -9 18 -8 -14 -23 -3
-34 28 -4 12 -6 11 -6 -2 -1 -21 -21 -23 -40 -6 -10 11 -11 8 -6 -14 5 -18 3
-28 -4 -28 -13 0 -15 44 -2 68 4 9 11 31 15 47 6 27 5 28 -8 12 -10 -13 -16
-15 -21 -7 -5 8 -13 1 -22 -19 -21 -43 -30 -39 -30 13 0 40 2 44 19 35 21 -11
23 0 4 26 -8 11 -19 16 -30 12 -9 -4 -16 -2 -16 3 0 6 4 10 8 10 4 0 9 23 9
51 2 43 0 49 -12 39 -10 -8 -15 -9 -15 -2 0 6 -6 9 -14 6 -8 -3 -16 4 -20 18
-5 19 -8 20 -15 8 -5 -8 -8 -17 -5 -21 2 -4 -2 -9 -10 -12 -16 -6 -46 22 -46
43 0 8 -15 30 -32 49 -18 18 -28 31 -21 27 8 -4 11 1 10 14 -1 11 -4 20 -8 20
-4 0 -13 26 -19 57 -7 31 -16 64 -20 72 -4 9 -17 35 -29 59 -12 23 -19 42 -16
42 3 0 3 5 -1 12 -4 6 -8 28 -9 48 -1 20 -4 41 -8 47 -4 5 -9 37 -13 69 -3 32
-8 61 -10 63 -2 2 1 12 6 22 6 10 6 27 2 40 -11 28 14 118 37 137 9 8 10 11 4
7 -21 -10 -14 6 13 31 14 13 31 24 39 24 8 0 17 5 20 10 3 6 1 10 -5 10 -7 0
1 17 17 38 26 33 29 44 27 107 -3 94 -3 95 -13 95 -8 0 -33 -56 -36 -80 0 -3
-6 -14 -13 -25 -11 -18 -12 -15 -9 22 2 23 12 54 21 67 9 14 16 34 16 46 0 11
5 20 10 20 6 0 10 9 10 20 0 22 -10 26 -27 9 -8 -8 -13 -7 -18 2 -5 7 -1 17
10 25 10 8 17 15 14 16 -2 2 -13 8 -23 14 -11 6 -22 16 -24 24 -3 7 0 10 6 6
6 -3 13 -2 16 3 4 5 2 12 -3 16 -6 3 -2 14 9 25 11 11 20 26 20 33 0 8 -4 7
-10 -3 -7 -10 -9 2 -5 42 3 42 1 61 -10 72 -20 19 -19 56 0 56 9 0 18 6 21 14
3 8 26 19 52 26 26 6 54 15 63 20 9 4 57 11 107 15 51 4 100 14 109 21 10 7
25 11 33 9 8 -2 40 -8 70 -14z m-1159 -168 c-12 -20 -14 -14 -5 12 4 9 9 14
11 11 3 -2 0 -13 -6 -23z m-501 -1039 c0 -14 -4 -23 -9 -20 -5 3 -7 15 -4 26
7 28 13 25 13 -6z m-62 -94 c0 -9 -3 -7 -8 5 -5 11 -8 29 -8 40 0 16 2 15 8
-5 4 -14 8 -32 8 -40z m222 -90 c0 -5 -5 -10 -11 -10 -5 0 -7 5 -4 10 3 6 8
10 11 10 2 0 4 -4 4 -10z m67 -186 c-3 -3 -12 -4 -19 -1 -8 3 -5 6 6 6 11 1
17 -2 13 -5z m1137 -119 c-4 -8 -8 -15 -10 -15 -2 0 -4 7 -4 15 0 8 4 15 10
15 5 0 7 -7 4 -15z m840 -56 c-8 -13 -24 -1 -24 18 0 13 3 13 15 3 8 -7 12
-16 9 -21z m-42 -21 c-15 -15 -26 -4 -18 18 5 13 9 15 18 6 9 -9 9 -15 0 -24z
m-107 -28 c-3 -5 -14 -10 -23 -9 -14 0 -13 2 3 9 27 11 27 11 20 0z m216 -12
c9 -16 8 -39 -1 -95 -7 -40 -17 -73 -21 -73 -5 0 0 -19 10 -42 12 -31 15 -52
10 -72 -5 -19 -4 -35 3 -43 8 -10 8 -17 1 -24 -7 -7 -16 -4 -27 12 -8 13 -19
19 -23 15 -4 -4 -3 -10 2 -14 6 -4 11 -15 13 -26 3 -13 -1 -17 -12 -13 -9 4
-15 1 -13 -6 1 -7 -7 -11 -21 -9 -13 2 -25 -3 -28 -12 -5 -12 -9 -11 -25 5
-23 23 -39 25 -39 4 0 -8 -7 -15 -15 -15 -9 0 -18 7 -21 15 -4 8 -12 15 -20
15 -8 0 -14 -7 -14 -15 0 -8 -4 -15 -10 -15 -5 0 -10 7 -10 15 0 9 -10 19 -22
24 -26 10 -58 45 -58 62 0 8 -4 8 -14 0 -11 -9 -14 -3 -20 35 -3 25 -1 54 4
64 6 10 10 34 10 52 0 25 3 29 10 18 8 -12 10 -10 10 9 0 14 5 39 11 56 11 29
18 33 78 44 36 7 83 15 104 16 21 2 44 8 52 15 8 6 18 9 23 7 4 -3 14 -2 22 4
24 14 38 11 51 -13z m-1636 -58 c-3 -5 -15 -10 -26 -10 -10 0 -19 5 -19 10 0
6 12 10 26 10 14 0 23 -4 19 -10z m100 -119 c3 -5 1 -12 -5 -16 -5 -3 -10 1
-10 9 0 18 6 21 15 7z m10 -33 c11 1 34 -9 50 -22 121 -101 143 -122 139 -136
-5 -21 7 -37 31 -42 14 -2 19 -10 17 -26 -2 -12 2 -22 7 -22 6 0 11 5 11 10 0
6 7 10 15 10 8 0 15 -4 15 -9 0 -5 9 -13 20 -16 11 -4 18 -10 15 -15 -3 -4 11
-22 30 -39 40 -35 42 -44 15 -71 -30 -30 -24 -92 12 -132 16 -18 31 -42 34
-55 4 -14 11 -20 21 -16 9 4 21 -1 27 -9 12 -16 110 -50 119 -41 10 9 117 11
123 1 3 -5 13 -7 23 -4 12 5 11 3 -3 -9 -17 -12 -17 -17 -5 -32 11 -13 11 -15
1 -9 -10 6 -13 3 -12 -10 3 -26 -11 -83 -21 -90 -5 -3 -6 -10 -3 -16 4 -6 2
-8 -3 -5 -6 4 -16 1 -22 -6 -8 -11 -7 -13 7 -12 9 0 23 5 30 9 7 4 -3 -24 -23
-63 -31 -63 -79 -241 -112 -423 -3 -16 -9 -28 -13 -28 -5 0 -23 26 -41 57 -43
75 -58 88 -224 200 -152 102 -159 107 -357 264 -73 58 -149 116 -168 130 -19
13 -55 40 -81 59 -74 56 -97 72 -177 125 -42 28 -78 57 -80 65 -3 8 -1 12 3 8
5 -4 13 -4 19 1 7 6 27 -1 54 -20 23 -16 45 -29 49 -29 3 0 21 -16 40 -35 18
-19 39 -34 46 -32 7 1 11 -4 9 -10 -3 -16 20 -17 36 -1 9 9 12 9 12 -1 0 -7 6
-11 14 -8 23 9 84 -12 106 -35 11 -12 20 -18 20 -13 0 4 9 0 20 -10 18 -17 22
-16 19 1 0 4 5 10 12 14 9 6 9 18 -1 56 -6 27 -13 75 -15 107 -3 48 0 63 18
83 11 13 28 24 38 24 15 0 16 5 9 30 -7 23 -5 30 6 30 10 0 13 8 9 30 -3 17
-1 30 3 30 5 0 9 7 9 15 0 8 -6 15 -14 15 -11 0 -11 4 -1 20 11 17 10 22 -2
30 -13 8 -13 10 2 10 21 0 32 33 19 57 -12 24 -3 75 13 66 6 -4 20 -6 31 -5z
m975 2 c0 -5 -4 -10 -10 -10 -5 0 -10 5 -10 10 0 6 5 10 10 10 6 0 10 -4 10
-10z m991 -87 c-18 -34 -59 -64 -92 -69 -19 -3 -60 -9 -92 -15 -31 -5 -61 -7
-66 -4 -6 3 -12 1 -16 -5 -3 -6 -17 -8 -31 -6 -13 3 -24 0 -24 -5 0 -5 -7 -9
-15 -9 -8 0 -15 5 -15 10 0 6 -9 10 -19 10 -23 0 -34 25 -18 38 7 5 48 15 92
20 44 6 100 15 125 21 84 19 125 27 153 29 24 2 27 0 18 -15z m886 -85 c-3 -7
-5 -2 -5 12 0 14 2 19 5 13 2 -7 2 -19 0 -25z m-215 -126 c74 -41 173 -130
205 -184 14 -24 -3 -11 -61 47 -54 54 -104 93 -151 118 -96 50 -105 57 -80 57
11 0 50 -17 87 -38z m-162 -143 c0 -6 -4 -7 -10 -4 -5 3 -10 11 -10 16 0 6 5
7 10 4 6 -3 10 -11 10 -16z m-855 -45 c9 -15 12 -23 6 -20 -11 7 -35 46 -28
46 3 0 12 -12 22 -26z m65 -9 c13 -14 21 -25 18 -25 -2 0 -15 11 -28 25 -13
14 -21 25 -18 25 2 0 15 -11 28 -25z m998 -75 c4 -10 -5 -7 -29 8 -44 28 -52
52 -9 26 18 -10 36 -26 38 -34z m-178 30 c0 -5 -2 -10 -4 -10 -3 0 -8 5 -11
10 -3 6 -1 10 4 10 6 0 11 -4 11 -10z m281 -97 c13 -15 12 -15 -8 -4 -24 12
-29 21 -14 21 5 0 15 -7 22 -17z m-840 -210 c13 -16 12 -17 -3 -4 -10 7 -18
15 -18 17 0 8 8 3 21 -13z m463 -7 c31 -13 66 -49 66 -69 0 -4 -17 5 -37 22
-21 16 -47 31 -57 33 -21 3 -35 28 -17 28 7 0 27 -6 45 -14z m-67 -2 c-3 -3
-12 -4 -19 -1 -8 3 -5 6 6 6 11 1 17 -2 13 -5z m58 -94 c3 -6 -1 -7 -9 -4 -18
7 -21 14 -7 14 6 0 13 -4 16 -10z m52 -42 c-3 -8 -6 -5 -6 6 -1 11 2 17 5 13
3 -3 4 -12 1 -19z m19 -59 c13 -22 -11 -28 -36 -9 l-25 20 27 0 c15 0 30 -5
34 -11z m-701 -69 c3 -5 1 -10 -4 -10 -6 0 -11 5 -11 10 0 6 2 10 4 10 3 0 8
-4 11 -10z m610 0 c8 -13 -55 -13 -75 0 -11 7 -4 10 27 10 23 0 45 -4 48 -10z
m1092 -387 c-3 -10 -5 -4 -5 12 0 17 2 24 5 18 2 -7 2 -21 0 -30z"/>
<path d="M932 2353 c2 -20 9 -28 23 -28 23 0 33 34 13 46 -26 17 -39 10 -36
-18z"/>
<path d="M880 2343 c-8 -4 -22 -14 -31 -25 -9 -10 -28 -18 -41 -18 -14 0 -31
-7 -38 -15 -7 -8 -19 -15 -26 -15 -8 0 -14 -5 -14 -11 0 -6 -9 -9 -20 -6 -11
3 -20 1 -20 -4 0 -5 -11 -14 -25 -19 -29 -11 -31 -22 -10 -44 14 -13 18 -13
45 2 18 10 28 23 25 31 -4 10 -2 11 8 3 10 -9 27 -3 69 22 30 19 72 40 92 47
38 14 40 17 30 43 -6 16 -18 19 -44 9z"/>
<path d="M1240 2230 c0 -5 12 -10 26 -10 14 0 23 4 19 10 -3 6 -15 10 -26 10
-10 0 -19 -4 -19 -10z"/>
<path d="M2227 3081 c-42 -19 -42 -20 -30 -32 17 -17 103 -17 125 1 19 15 19
17 2 30 -22 19 -57 20 -97 1z"/>
<path d="M2208 2973 c17 -7 15 -23 -3 -23 -31 0 -95 -39 -89 -55 4 -8 12 -15
20 -15 8 0 14 -8 14 -17 0 -15 -2 -16 -10 -3 -5 8 -12 12 -15 8 -10 -10 18
-48 36 -48 9 0 19 7 23 15 3 8 12 15 21 15 10 0 15 10 15 30 0 27 2 30 20 20
15 -8 21 -6 30 11 10 17 8 25 -11 45 -12 13 -32 24 -43 23 -12 0 -15 -3 -8 -6z
m-18 -83 c0 -5 -2 -10 -4 -10 -3 0 -8 5 -11 10 -3 6 -1 10 4 10 6 0 11 -4 11
-10z"/>
<path d="M2010 2910 c-8 -5 -23 -11 -34 -14 -10 -4 -16 -12 -13 -20 3 -8 -1
-24 -10 -35 -21 -31 -7 -39 22 -11 13 12 38 24 56 26 39 5 43 8 35 30 -5 13
-9 15 -18 6 -7 -7 -19 -12 -27 -12 -11 0 -9 6 9 20 25 20 10 28 -20 10z"/>
<path d="M1585 2370 c3 -5 8 -10 11 -10 2 0 4 5 4 10 0 6 -5 10 -11 10 -5 0
-7 -4 -4 -10z"/>
<path d="M1442 838 c-7 -7 -12 -20 -12 -31 0 -24 33 -19 38 7 5 24 -11 39 -26
24z"/>
<path d="M2905 1720 c-3 -5 -2 -10 4 -10 5 0 13 5 16 10 3 6 2 10 -4 10 -5 0
-13 -4 -16 -10z"/>
<path d="M4581 364 c0 -11 3 -14 6 -6 3 7 2 16 -1 19 -3 4 -6 -2 -5 -13z"/>
</g>
</svg>
